<mxfile host="app.diagrams.net" modified="2024-06-02T07:13:31.799Z" agent="Mozilla/5.0 (Windows NT 10.0; Win64; x64) AppleWebKit/537.36 (KHTML, like Gecko) Chrome/122.0.0.0 YaBrowser/24.4.0.0 Safari/537.36" etag="TkiBS4EFIyF9NfSvKumB" version="24.4.13" type="device">
  <diagram name="Страница — 1" id="WASdTxgrpqtSD26j3xe4">
    <mxGraphModel dx="728" dy="1242" grid="1" gridSize="10" guides="1" tooltips="1" connect="1" arrows="1" fold="1" page="1" pageScale="1" pageWidth="827" pageHeight="1169" math="0" shadow="0">
      <root>
        <mxCell id="0" />
        <mxCell id="1" parent="0" />
        <mxCell id="AYSUB1fEvq2Not23qo_V-3" value="" style="edgeStyle=orthogonalEdgeStyle;rounded=0;orthogonalLoop=1;jettySize=auto;html=1;" edge="1" parent="1" source="AYSUB1fEvq2Not23qo_V-1" target="AYSUB1fEvq2Not23qo_V-2">
          <mxGeometry relative="1" as="geometry" />
        </mxCell>
        <mxCell id="AYSUB1fEvq2Not23qo_V-1" value="Start" style="ellipse;whiteSpace=wrap;html=1;" vertex="1" parent="1">
          <mxGeometry x="157" y="80" width="120" height="80" as="geometry" />
        </mxCell>
        <mxCell id="AYSUB1fEvq2Not23qo_V-5" value="" style="edgeStyle=orthogonalEdgeStyle;rounded=0;orthogonalLoop=1;jettySize=auto;html=1;" edge="1" parent="1" source="AYSUB1fEvq2Not23qo_V-2" target="AYSUB1fEvq2Not23qo_V-4">
          <mxGeometry relative="1" as="geometry" />
        </mxCell>
        <mxCell id="AYSUB1fEvq2Not23qo_V-2" value="String[] array1&lt;div&gt;String[] array2&lt;/div&gt;" style="shape=parallelogram;perimeter=parallelogramPerimeter;whiteSpace=wrap;html=1;fixedSize=1;" vertex="1" parent="1">
          <mxGeometry x="157" y="200" width="120" height="60" as="geometry" />
        </mxCell>
        <mxCell id="AYSUB1fEvq2Not23qo_V-8" value="" style="edgeStyle=orthogonalEdgeStyle;rounded=0;orthogonalLoop=1;jettySize=auto;html=1;" edge="1" parent="1" source="AYSUB1fEvq2Not23qo_V-4" target="AYSUB1fEvq2Not23qo_V-7">
          <mxGeometry relative="1" as="geometry" />
        </mxCell>
        <mxCell id="AYSUB1fEvq2Not23qo_V-12" style="edgeStyle=orthogonalEdgeStyle;rounded=0;orthogonalLoop=1;jettySize=auto;html=1;" edge="1" parent="1" source="AYSUB1fEvq2Not23qo_V-4">
          <mxGeometry relative="1" as="geometry">
            <mxPoint x="397" y="340" as="targetPoint" />
          </mxGeometry>
        </mxCell>
        <mxCell id="AYSUB1fEvq2Not23qo_V-4" value="i=0&lt;div&gt;i&amp;lt;array1.Length&lt;/div&gt;&lt;div&gt;i++&lt;/div&gt;" style="rhombus;whiteSpace=wrap;html=1;" vertex="1" parent="1">
          <mxGeometry x="132" y="300" width="170" height="80" as="geometry" />
        </mxCell>
        <mxCell id="AYSUB1fEvq2Not23qo_V-11" style="edgeStyle=orthogonalEdgeStyle;rounded=0;orthogonalLoop=1;jettySize=auto;html=1;entryX=0;entryY=0.5;entryDx=0;entryDy=0;" edge="1" parent="1" source="AYSUB1fEvq2Not23qo_V-6" target="AYSUB1fEvq2Not23qo_V-4">
          <mxGeometry relative="1" as="geometry">
            <Array as="points">
              <mxPoint x="217" y="680" />
              <mxPoint x="77" y="680" />
              <mxPoint x="77" y="340" />
            </Array>
          </mxGeometry>
        </mxCell>
        <mxCell id="AYSUB1fEvq2Not23qo_V-6" value="array2+=array1[i]" style="rounded=0;whiteSpace=wrap;html=1;" vertex="1" parent="1">
          <mxGeometry x="157" y="550" width="120" height="60" as="geometry" />
        </mxCell>
        <mxCell id="AYSUB1fEvq2Not23qo_V-9" value="" style="edgeStyle=orthogonalEdgeStyle;rounded=0;orthogonalLoop=1;jettySize=auto;html=1;" edge="1" parent="1" source="AYSUB1fEvq2Not23qo_V-7" target="AYSUB1fEvq2Not23qo_V-6">
          <mxGeometry relative="1" as="geometry" />
        </mxCell>
        <mxCell id="AYSUB1fEvq2Not23qo_V-7" value="if(array[i].Length&amp;lt;=3)" style="rhombus;whiteSpace=wrap;html=1;" vertex="1" parent="1">
          <mxGeometry x="112" y="420" width="210" height="80" as="geometry" />
        </mxCell>
        <mxCell id="AYSUB1fEvq2Not23qo_V-15" value="" style="edgeStyle=orthogonalEdgeStyle;rounded=0;orthogonalLoop=1;jettySize=auto;html=1;" edge="1" parent="1" source="AYSUB1fEvq2Not23qo_V-13" target="AYSUB1fEvq2Not23qo_V-14">
          <mxGeometry relative="1" as="geometry" />
        </mxCell>
        <mxCell id="AYSUB1fEvq2Not23qo_V-13" value="Print(array2)" style="shape=document;whiteSpace=wrap;html=1;boundedLbl=1;" vertex="1" parent="1">
          <mxGeometry x="397" y="310" width="120" height="80" as="geometry" />
        </mxCell>
        <mxCell id="AYSUB1fEvq2Not23qo_V-14" value="End." style="ellipse;whiteSpace=wrap;html=1;" vertex="1" parent="1">
          <mxGeometry x="587" y="310" width="120" height="80" as="geometry" />
        </mxCell>
      </root>
    </mxGraphModel>
  </diagram>
</mxfile>
